<?xml version="1.0" encoding="UTF-8" standalone="no"?>
<!-- Created with Inkscape (http://www.inkscape.org/) -->

<svg
   width="141.55431mm"
   height="147.13455mm"
   viewBox="0 0 141.55431 147.13455"
   version="1.1"
   id="svg5"
   inkscape:version="1.2.2 (b0a8486541, 2022-12-01)"
   sodipodi:docname="SpooKey_flying2.svg"
   xmlns:inkscape="http://www.inkscape.org/namespaces/inkscape"
   xmlns:sodipodi="http://sodipodi.sourceforge.net/DTD/sodipodi-0.dtd"
   xmlns="http://www.w3.org/2000/svg"
   xmlns:svg="http://www.w3.org/2000/svg">
  <sodipodi:namedview
     id="namedview7"
     pagecolor="#ffffff"
     bordercolor="#000000"
     borderopacity="0.25"
     inkscape:showpageshadow="2"
     inkscape:pageopacity="0.0"
     inkscape:pagecheckerboard="0"
     inkscape:deskcolor="#d1d1d1"
     inkscape:document-units="mm"
     showgrid="false"
     inkscape:zoom="1.0645786"
     inkscape:cx="297.7704"
     inkscape:cy="228.729"
     inkscape:window-width="1920"
     inkscape:window-height="1026"
     inkscape:window-x="0"
     inkscape:window-y="26"
     inkscape:window-maximized="1"
     inkscape:current-layer="layer1" />
  <defs
     id="defs2" />
  <g
     inkscape:label="Layer 1"
     inkscape:groupmode="layer"
     id="layer1"
     transform="translate(-30.126627,-79.554013)">
    <path
       style="fill:#000000;stroke-width:0.264583"
       d="m 33.102423,103.06289 -2.975796,22.40101 22.09718,51.87177 49.179833,20.96309 40.02782,10.89717 -0.0558,-9.91003 6.19367,-10.49506 -0.36096,-12.76616 13.51792,-9.03351 3.33313,-12.6896 7.62151,-2.6903 -52.09419,-19.84316 -12.03757,-22.02876 -13.132825,-26.162503 -32.903085,-4.022834 -19.096175,7.1936 z"
       id="path115" />
    <path
       style="fill:#000000;stroke-width:0.264583"
       d="m 53.93405,177.98039 66.8728,48.70818 c 0,0 0.38408,-11.69577 2.60863,-12.04725 2.22455,-0.35147 18.29404,-5.82225 18.29404,-5.82225 z"
       id="path171" />
    <path
       style="fill:#ffffff;stroke-width:0.244275"
       d="m 35.83912,104.01698 -2.687832,21.13996 19.958863,48.95166 44.420756,19.78298 36.154393,10.28372 -0.0504,-9.35215 5.59431,-9.90424 -0.32603,-12.04749 12.20981,-8.52498 3.01059,-11.97524 6.88398,-2.53885 -47.0531,-18.7261 L 103.08174,110.3176 91.219768,85.627902 61.500675,81.831532 44.252413,88.620171 Z"
       id="path115-3" />
    <path
       style="fill:#ffffff;stroke-width:0.244275"
       d="M 54.654896,174.71703 115.0565,220.6832 c 0,0 0.34692,-11.03736 2.3562,-11.36905 2.00928,-0.33169 16.52375,-5.49449 16.52375,-5.49449 z"
       id="path171-6" />
    <path
       style="fill:#b3b3b3;stroke-width:0.264583"
       d="m 43.318567,108.92639 -2.086909,7.09593 1.754008,4.73059 3.068021,2.23688 4.858723,-1.83545 1.511978,-6.03729 -1.677366,-7.9173 -4.4509,-0.81971 z"
       id="path368" />
    <path
       style="fill:#000000;stroke-width:0.264583"
       d="m 46.479658,106.62578 -1.991151,2.48624 -1.532752,6.73749 0.700741,3.76792 2.506019,2.45102 4.951492,-1.69212 1.346652,-5.44467 -1.722472,-7.65957 z"
       id="path478" />
    <path
       style="fill:#999999;stroke-width:0.264583"
       d="m 42.957334,120.77712 0.711398,-1.17943 -0.707509,-3.74144 -1.763712,0.17224 z"
       id="path480" />
    <path
       style="fill:#cccccc;stroke-width:0.264583"
       d="m 43.326991,108.97683 1.20178,0.13388 1.995996,-2.48994 -0.187495,-0.23218 z"
       id="path590" />
    <path
       style="fill:#cccccc;stroke-width:0.264583"
       d="m 46.203073,122.08802 -0.14591,0.87135 4.827498,-1.81997 0.207679,-0.75011 z"
       id="path592" />
    <path
       style="fill:#808080;stroke-width:0.264583"
       d="m 41.231775,116.05455 2.097161,-7.16077 1.202941,0.20361 -1.571249,6.70445 z"
       id="path594" />
    <path
       style="fill:#808080;stroke-width:0.264583"
       d="m 46.285724,106.38856 0.268874,0.26106 -2.039278,2.44632 -1.162788,-0.21333 z"
       id="path596" />
    <path
       style="fill:#ffaaaa;stroke-width:0.264583"
       d="m 50.647666,125.47245 -2.507785,1.05501 -0.741934,2.61434 2.819625,0.90927 4.446849,-1.44491 1.599274,-2.80289 -2.403562,-1.27962 z"
       id="path598" />
    <path
       style="fill:#ffaaaa;stroke-width:0.264583"
       d="m 53.080245,125.41525 -0.45574,0.66983 0.550945,0.0949 0.613182,-0.47549 z"
       id="path708" />
    <path
       style="fill:#e3dbdb;stroke-width:0.264583"
       d="m 117.01867,209.2302 -12.21661,-12.12641 c 0,0 3.91285,-3.7239 3.73711,-4.26663 -0.17574,-0.54274 -2.88278,-4.14824 -2.88278,-4.14824 l 27.91376,15.0836 z"
       id="path764" />
    <path
       style="fill:#e3dbdb;stroke-width:0.264583"
       d="m 133.59344,194.4642 -8.28178,-4.80666 2.62203,-0.89022 -0.53167,-1.53435 8.4072,3.67805 z"
       id="path766" />
    <path
       style="fill:#e3dbdb;stroke-width:0.264583"
       d="m 139.0504,185.00705 -18.70596,-8.96353 13.47808,2.973 -4.19368,-5.07022 9.13805,-0.668 z"
       id="path768" />
    <path
       style="fill:#e3dbdb;stroke-width:0.264583"
       d="m 151.16737,164.20449 -13.68391,-15.50717 16.65487,3.69178 z"
       id="path770" />
    <path
       style="fill:#e3dbdb;stroke-width:0.264583"
       d="M 60.771894,81.917319 82.101832,96.374327 104.99206,133.82783 160.84425,150.04934 113.92698,131.30913 91.362444,85.590397 Z"
       id="path772" />
    <path
       style="fill:#e3dbdb;stroke-width:0.264583"
       d="m 54.386598,174.36916 60.775802,41.98732 -0.6275,3.95285 z"
       id="path774" />
    <path
       style="fill:#e3dbdb;stroke-width:0.264583"
       d="m 77.946871,150.57028 35.994999,14.91856 c 0,0 -0.33085,2.16208 -4.14445,1.45912 -3.81361,-0.70296 -31.850549,-16.37768 -31.850549,-16.37768 z"
       id="path776" />
    <path
       style="fill:#e3dbdb;stroke-width:0.264583"
       d="m 89.142487,181.41187 13.400803,7.8037 2.08485,3.37557 -2.00106,2.44244 z"
       id="path778" />
    <path
       style="fill:#483e37;stroke-width:0.264583"
       d="m 161.78003,151.01536 4.48997,0.97017 -3.42732,1.31178 -3.3765,12.38193 -14.11442,8.71631 0.47239,14.11734 -6.53888,9.90572 0.54269,8.46486 -18.05117,6.67956 -2.64468,9.343 -2.64308,-2.6 1.62672,-9.65457 17.00241,-5.93507 -0.0727,-9.52291 6.2891,-10.22671 -0.42961,-11.22613 11.38825,-8.09874 2.9896,-12.02375 z"
       id="path782" />
  </g>
</svg>
