<?xml version="1.0" encoding="UTF-8" standalone="no"?>
<!-- Created with Inkscape (http://www.inkscape.org/) -->

<svg
   width="138.73071mm"
   height="148.50053mm"
   viewBox="0 0 138.73071 148.50053"
   version="1.1"
   id="svg991"
   inkscape:version="1.2.2 (b0a8486541, 2022-12-01)"
   sodipodi:docname="SpooKey_flying3.svg"
   xmlns:inkscape="http://www.inkscape.org/namespaces/inkscape"
   xmlns:sodipodi="http://sodipodi.sourceforge.net/DTD/sodipodi-0.dtd"
   xmlns="http://www.w3.org/2000/svg"
   xmlns:svg="http://www.w3.org/2000/svg">
  <sodipodi:namedview
     id="namedview993"
     pagecolor="#ffffff"
     bordercolor="#000000"
     borderopacity="0.25"
     inkscape:showpageshadow="2"
     inkscape:pageopacity="0.0"
     inkscape:pagecheckerboard="0"
     inkscape:deskcolor="#d1d1d1"
     inkscape:document-units="mm"
     showgrid="false"
     inkscape:zoom="0.75277076"
     inkscape:cx="640.96538"
     inkscape:cy="474.24796"
     inkscape:window-width="1920"
     inkscape:window-height="1021"
     inkscape:window-x="0"
     inkscape:window-y="26"
     inkscape:window-maximized="0"
     inkscape:current-layer="layer1" />
  <defs
     id="defs988" />
  <g
     inkscape:label="Layer 1"
     inkscape:groupmode="layer"
     id="layer1"
     transform="translate(-39.101096,-77.115449)">
    <g
       inkscape:groupmode="layer"
       id="layer2"
       inkscape:label="Layer 2">
      <path
         style="display:inline;fill:#000000;stroke-width:0.264583"
         d="m 60.613326,171.55409 70.900814,54.06189 -0.51965,-5.31717 16.07543,-7.80969 1.31342,-10.7896 7.64774,-8.93686 -0.13009,-13.80468 9.77288,-7.7746 2.21927,-13.2278 9.93867,-9.24607 -54.98849,-22.29523 -22.42981,-44.867118 -31.364757,-4.431713 -17.701209,6.898146 -9.019101,16.434735 -3.227347,21.26749 z"
         id="path1340" />
    </g>
    <path
       style="fill:#ffffff;stroke-width:0.244275"
       d="m 43.865089,100.61341 -2.687832,21.13996 19.958863,48.95166 44.42075,19.78298 36.15439,10.28372 -0.0504,-9.35215 5.59431,-9.90424 -0.32603,-12.04749 12.20981,-8.52498 3.0106,-11.97524 6.88398,-2.53885 -47.0531,-18.7261 -10.87273,-20.78865 -11.861966,-24.689695 -29.71909,-3.79637 -17.248262,6.788639 z"
       id="path115-3" />
    <path
       style="fill:#ffffff;stroke-width:0.244275"
       d="m 62.680865,171.31346 60.401595,45.96617 c 0,0 0.34692,-11.03736 2.3562,-11.36905 2.00928,-0.33169 16.52376,-5.49449 16.52376,-5.49449 z"
       id="path171-6" />
    <path
       style="fill:#b3b3b3;stroke-width:0.264583"
       d="m 51.344536,105.52282 -2.086909,7.09593 1.754008,4.73059 3.068021,2.23688 4.858723,-1.83545 1.511978,-6.03729 -1.677366,-7.9173 -4.4509,-0.81971 z"
       id="path368" />
    <path
       style="fill:#000000;stroke-width:0.264583"
       d="m 54.505627,103.22221 -1.991151,2.48624 -1.532752,6.73749 0.700741,3.76792 2.506019,2.45102 4.951492,-1.69212 1.346652,-5.44467 -1.722472,-7.65957 z"
       id="path478" />
    <path
       style="fill:#999999;stroke-width:0.264583"
       d="m 50.983303,117.37355 0.711398,-1.17943 -0.707509,-3.74144 -1.763712,0.17224 z"
       id="path480" />
    <path
       style="fill:#cccccc;stroke-width:0.264583"
       d="m 51.35296,105.57326 1.20178,0.13388 1.995996,-2.48994 -0.187495,-0.23218 z"
       id="path590" />
    <path
       style="fill:#cccccc;stroke-width:0.264583"
       d="m 54.229042,118.68445 -0.14591,0.87135 4.827498,-1.81997 0.207679,-0.75011 z"
       id="path592" />
    <path
       style="fill:#808080;stroke-width:0.264583"
       d="m 49.257744,112.65098 2.097161,-7.16077 1.202941,0.20361 -1.571249,6.70445 z"
       id="path594" />
    <path
       style="fill:#808080;stroke-width:0.264583"
       d="m 54.311693,102.98499 0.268874,0.26106 -2.039278,2.44632 -1.162788,-0.21333 z"
       id="path596" />
    <path
       style="fill:#ffaaaa;stroke-width:0.264583"
       d="m 58.673635,122.06888 -2.507785,1.05501 -0.741934,2.61434 2.819625,0.90927 4.446849,-1.44491 1.599274,-2.80289 -2.403562,-1.27962 z"
       id="path598" />
    <path
       style="fill:#ffaaaa;stroke-width:0.264583"
       d="m 61.106214,122.01168 -0.45574,0.66983 0.550945,0.0949 0.613182,-0.47549 z"
       id="path708" />
    <path
       style="fill:#ffffff;stroke-width:0.264583"
       d="m 167.94664,146.39514 -6.6547,7.54671 -3.13729,11.88706 -11.75222,10.17746 0.87651,13.19667 -6.1167,8.70828 0.47221,6.75209 -18.36123,9.29337 1.85817,4.71224 -2.70057,-1.87655 1.48059,-10.74189 33.98703,-58.23295 z"
       id="path1284" />
    <path
       style="fill:#483e37;fill-opacity:1;stroke-width:0.264583"
       d="m 170.06858,147.90967 4.66146,1.44727 -8.48287,6.45823 -2.5003,13.97788 -9.33364,7.61457 -0.24125,14.59866 -7.16581,8.21994 -1.00782,10.92737 -15.44776,6.96782 -0.26352,4.26894 -3.17818,-2.7089 -0.10478,-3.24177 16.83345,-9.62828 0.17458,-8.82975 6.89928,-7.46189 -1.40602,-5.48202 0.50278,-1.25276 -0.67612,-6.07751 11.85271,-9.58875 2.00656,-13.15021 z"
       id="path2031" />
    <path
       style="fill:#e3dbdb;fill-opacity:1;stroke-width:0.264583"
       d="m 142.4095,195.49227 -6.4972,-1.57107 5.47144,4.96415 -0.26146,-1.21567 z"
       id="path2434" />
    <path
       style="fill:#e3dbdb;fill-opacity:1;stroke-width:0.264583"
       d="m 147.08949,189.22427 -22.63489,-16.20477 14.89846,5.7959 -2.02341,-4.36025 9.99582,1.4119 -0.59578,5.54285 -0.70633,0.49552 z"
       id="path2436" />
    <path
       style="fill:#e3dbdb;fill-opacity:1;stroke-width:0.264583"
       d="m 156.64121,164.89038 c -0.75101,-0.60202 -24.78315,-15.00539 -24.78315,-15.00539 l 16.48523,5.17627 2.81188,-0.35658 -1.05785,-1.77572 -7.52139,-2.67529 18.34158,3.14175 -2.63839,12.33903 z"
       id="path2438" />
    <path
       style="fill:#e3dbdb;fill-opacity:1;stroke-width:0.264583"
       d="m 106.81299,150.76362 12.30074,9.11348 0.6172,-3.2593 3.43407,-0.5309 z"
       id="path2440" />
    <path
       style="fill:#e3dbdb;fill-opacity:1;stroke-width:0.264583"
       d="m 108.46539,177.37357 6.82002,5.63615 0.13839,-1.70549 z"
       id="path2442" />
    <path
       style="fill:#e3dbdb;fill-opacity:1;stroke-width:0.264583"
       d="m 73.600169,79.314401 11.717544,5.595859 4.818554,6.548527 5.695106,15.294093 16.248087,20.39178 55.20003,19.53177 1.29112,-0.12979 -47.01677,-18.62498 -22.5223,-45.466945 z"
       id="path2444" />
    <path
       style="fill:#e3dbdb;fill-opacity:1;stroke-width:0.264583"
       d="m 124.69645,218.31968 -16.1878,-12.79135 15.07987,8.38258 z"
       id="path2446" />
    <path
       style="fill:#e3dbdb;fill-opacity:1;stroke-width:0.264583"
       d="m 141.3277,204.48233 -9.86752,-10.48481 7.74129,3.27595 2.49661,1.55056 z"
       id="path2448" />
  </g>
  <g
     inkscape:groupmode="layer"
     id="layer3"
     inkscape:label="Layer 3"
     transform="translate(-39.101096,-77.115449)" />
</svg>
